<svg width="1000" height="850" viewBox="0 0 1000 850" fill="none" xmlns="http://www.w3.org/2000/svg">
<rect width="1000" height="850" fill="white"/>
<path d="M445.609 93H439.555V69.4844H431.801V64.4453H453.363V69.4844H445.609V93ZM466.234 70.7148C469.164 70.7148 471.41 71.3529 472.973 72.6289C474.535 73.9049 475.316 75.8451 475.316 78.4492V93H471.156L470.004 90.0312H469.848C469.223 90.8125 468.585 91.4505 467.934 91.9453C467.283 92.4401 466.534 92.8047 465.688 93.0391C464.841 93.2734 463.812 93.3906 462.602 93.3906C461.312 93.3906 460.154 93.1432 459.125 92.6484C458.109 92.1536 457.309 91.3984 456.723 90.3828C456.137 89.3542 455.844 88.0521 455.844 86.4766C455.844 84.1589 456.658 82.4531 458.285 81.3594C459.913 80.2526 462.354 79.6406 465.609 79.5234L469.398 79.4062V78.4492C469.398 77.3034 469.099 76.4635 468.5 75.9297C467.901 75.3958 467.068 75.1289 466 75.1289C464.945 75.1289 463.91 75.2786 462.895 75.5781C461.879 75.8776 460.863 76.2552 459.848 76.7109L457.875 72.6875C459.034 72.0755 460.329 71.5938 461.762 71.2422C463.207 70.8906 464.698 70.7148 466.234 70.7148ZM469.398 82.8828L467.094 82.9609C465.167 83.013 463.826 83.3581 463.07 83.9961C462.328 84.6341 461.957 85.474 461.957 86.5156C461.957 87.4271 462.224 88.0781 462.758 88.4688C463.292 88.8464 463.988 89.0352 464.848 89.0352C466.124 89.0352 467.198 88.6576 468.07 87.9023C468.956 87.1471 469.398 86.0729 469.398 84.6797V82.8828ZM493.871 70.7539C496.202 70.7539 498.077 71.3919 499.496 72.668C500.915 73.931 501.625 75.9622 501.625 78.7617V93H495.668V80.2461C495.668 78.6836 495.382 77.5052 494.809 76.7109C494.249 75.9167 493.363 75.5195 492.152 75.5195C490.329 75.5195 489.086 76.138 488.422 77.375C487.758 78.612 487.426 80.3958 487.426 82.7266V93H481.469V71.1641H486.02L486.82 73.957H487.152C487.621 73.2018 488.201 72.5898 488.891 72.1211C489.594 71.6523 490.368 71.3073 491.215 71.0859C492.074 70.8646 492.96 70.7539 493.871 70.7539ZM513.715 62.6094V76.2031C513.715 77.0234 513.682 77.8438 513.617 78.6641C513.552 79.4844 513.48 80.3047 513.402 81.125H513.48C513.884 80.5521 514.294 79.9857 514.711 79.4258C515.141 78.8659 515.596 78.3255 516.078 77.8047L522.191 71.1641H528.91L520.238 80.6367L529.438 93H522.562L516.273 84.1523L513.715 86.2031V93H507.758V62.6094H513.715ZM541.566 70.7539C543.585 70.7539 545.323 71.1445 546.781 71.9258C548.24 72.694 549.366 73.8138 550.16 75.2852C550.954 76.7565 551.352 78.5534 551.352 80.6758V83.5664H537.27C537.335 85.2461 537.836 86.5677 538.773 87.5312C539.724 88.4818 541.039 88.957 542.719 88.957C544.112 88.957 545.388 88.8138 546.547 88.5273C547.706 88.2409 548.897 87.8112 550.121 87.2383V91.8477C549.04 92.3815 547.908 92.7721 546.723 93.0195C545.551 93.2669 544.125 93.3906 542.445 93.3906C540.258 93.3906 538.318 92.987 536.625 92.1797C534.945 91.3724 533.624 90.1419 532.66 88.4883C531.71 86.8346 531.234 84.7513 531.234 82.2383C531.234 79.6862 531.664 77.5638 532.523 75.8711C533.396 74.1654 534.607 72.8893 536.156 72.043C537.706 71.1836 539.509 70.7539 541.566 70.7539ZM541.605 74.9922C540.447 74.9922 539.483 75.3633 538.715 76.1055C537.96 76.8477 537.523 78.013 537.406 79.6016H545.766C545.753 78.7161 545.59 77.9284 545.277 77.2383C544.978 76.5482 544.522 76.0013 543.91 75.5977C543.311 75.194 542.543 74.9922 541.605 74.9922Z" fill="#3D76AA"/>
<path d="M853.074 432L851.004 425.203H840.594L838.523 432H832L842.078 403.328H849.48L859.598 432H853.074ZM849.559 420.125L847.488 413.484C847.358 413.042 847.182 412.475 846.961 411.785C846.753 411.082 846.538 410.372 846.316 409.656C846.108 408.927 845.939 408.296 845.809 407.762C845.678 408.296 845.496 408.96 845.262 409.754C845.04 410.535 844.826 411.277 844.617 411.98C844.409 412.684 844.259 413.185 844.168 413.484L842.117 420.125H849.559ZM871.941 427.645C872.592 427.645 873.224 427.579 873.836 427.449C874.461 427.319 875.079 427.156 875.691 426.961V431.395C875.053 431.681 874.259 431.915 873.309 432.098C872.371 432.293 871.342 432.391 870.223 432.391C868.921 432.391 867.749 432.182 866.707 431.766C865.678 431.336 864.865 430.6 864.266 429.559C863.68 428.504 863.387 427.039 863.387 425.164V414.637H860.535V412.117L863.816 410.125L865.535 405.516H869.344V410.164H875.457V414.637H869.344V425.164C869.344 425.997 869.578 426.622 870.047 427.039C870.529 427.443 871.16 427.645 871.941 427.645ZM892.195 414.637H887.039V432H881.082V414.637H877.801V411.766L881.082 410.164V408.562C881.082 406.701 881.395 405.255 882.02 404.227C882.658 403.185 883.549 402.456 884.695 402.039C885.854 401.609 887.221 401.395 888.797 401.395C889.956 401.395 891.01 401.492 891.961 401.688C892.911 401.87 893.686 402.078 894.285 402.312L892.762 406.688C892.306 406.544 891.811 406.414 891.277 406.297C890.743 406.18 890.132 406.121 889.441 406.121C888.608 406.121 887.996 406.375 887.605 406.883C887.228 407.378 887.039 408.016 887.039 408.797V410.164H892.195V414.637ZM904.637 409.754C906.655 409.754 908.393 410.145 909.852 410.926C911.31 411.694 912.436 412.814 913.23 414.285C914.025 415.757 914.422 417.553 914.422 419.676V422.566H900.34C900.405 424.246 900.906 425.568 901.844 426.531C902.794 427.482 904.109 427.957 905.789 427.957C907.182 427.957 908.458 427.814 909.617 427.527C910.776 427.241 911.967 426.811 913.191 426.238V430.848C912.111 431.382 910.978 431.772 909.793 432.02C908.621 432.267 907.195 432.391 905.516 432.391C903.328 432.391 901.388 431.987 899.695 431.18C898.016 430.372 896.694 429.142 895.73 427.488C894.78 425.835 894.305 423.751 894.305 421.238C894.305 418.686 894.734 416.564 895.594 414.871C896.466 413.165 897.677 411.889 899.227 411.043C900.776 410.184 902.579 409.754 904.637 409.754ZM904.676 413.992C903.517 413.992 902.553 414.363 901.785 415.105C901.03 415.848 900.594 417.013 900.477 418.602H908.836C908.823 417.716 908.66 416.928 908.348 416.238C908.048 415.548 907.592 415.001 906.98 414.598C906.382 414.194 905.613 413.992 904.676 413.992ZM931.453 409.754C931.753 409.754 932.098 409.773 932.488 409.812C932.892 409.839 933.217 409.878 933.465 409.93L933.016 415.516C932.82 415.451 932.54 415.405 932.176 415.379C931.824 415.34 931.518 415.32 931.258 415.32C930.49 415.32 929.741 415.418 929.012 415.613C928.296 415.809 927.651 416.128 927.078 416.57C926.505 417 926.049 417.573 925.711 418.289C925.385 418.992 925.223 419.858 925.223 420.887V432H919.266V410.164H923.777L924.656 413.836H924.949C925.379 413.094 925.913 412.417 926.551 411.805C927.202 411.18 927.938 410.685 928.758 410.32C929.591 409.943 930.49 409.754 931.453 409.754ZM944.344 432.391C941.909 432.391 939.923 431.44 938.387 429.539C936.863 427.625 936.102 424.819 936.102 421.121C936.102 417.384 936.876 414.559 938.426 412.645C939.975 410.717 942 409.754 944.5 409.754C945.542 409.754 946.46 409.897 947.254 410.184C948.048 410.47 948.732 410.854 949.305 411.336C949.891 411.818 950.385 412.358 950.789 412.957H950.984C950.906 412.54 950.809 411.928 950.691 411.121C950.587 410.301 950.535 409.461 950.535 408.602V401.609H956.512V432H951.941L950.789 429.168H950.535C950.158 429.767 949.682 430.314 949.109 430.809C948.549 431.29 947.879 431.674 947.098 431.961C946.316 432.247 945.398 432.391 944.344 432.391ZM946.434 427.645C948.061 427.645 949.207 427.163 949.871 426.199C950.548 425.223 950.906 423.758 950.945 421.805V421.16C950.945 419.038 950.62 417.417 949.969 416.297C949.318 415.164 948.107 414.598 946.336 414.598C945.021 414.598 943.992 415.164 943.25 416.297C942.508 417.43 942.137 419.064 942.137 421.199C942.137 423.335 942.508 424.943 943.25 426.023C944.005 427.104 945.066 427.645 946.434 427.645Z" fill="#3D76AA"/>
<path d="M90.5625 432H83.6875L76.207 419.969L73.6484 421.805V432H67.5938V403.445H73.6484V416.512C74.0521 415.952 74.4492 415.392 74.8398 414.832C75.2305 414.272 75.6276 413.712 76.0312 413.152L83.7656 403.445H90.4844L80.5234 416.082L90.5625 432ZM105.875 409.754C106.174 409.754 106.52 409.773 106.91 409.812C107.314 409.839 107.639 409.878 107.887 409.93L107.438 415.516C107.242 415.451 106.962 415.405 106.598 415.379C106.246 415.34 105.94 415.32 105.68 415.32C104.911 415.32 104.163 415.418 103.434 415.613C102.717 415.809 102.073 416.128 101.5 416.57C100.927 417 100.471 417.573 100.133 418.289C99.8073 418.992 99.6445 419.858 99.6445 420.887V432H93.6875V410.164H98.1992L99.0781 413.836H99.3711C99.8008 413.094 100.335 412.417 100.973 411.805C101.624 411.18 102.359 410.685 103.18 410.32C104.013 409.943 104.911 409.754 105.875 409.754ZM131.695 421.043C131.695 422.866 131.448 424.48 130.953 425.887C130.471 427.293 129.762 428.484 128.824 429.461C127.9 430.424 126.78 431.154 125.465 431.648C124.163 432.143 122.691 432.391 121.051 432.391C119.514 432.391 118.102 432.143 116.812 431.648C115.536 431.154 114.423 430.424 113.473 429.461C112.535 428.484 111.806 427.293 111.285 425.887C110.777 424.48 110.523 422.866 110.523 421.043C110.523 418.621 110.953 416.57 111.812 414.891C112.672 413.211 113.896 411.935 115.484 411.062C117.073 410.19 118.967 409.754 121.168 409.754C123.212 409.754 125.022 410.19 126.598 411.062C128.186 411.935 129.43 413.211 130.328 414.891C131.24 416.57 131.695 418.621 131.695 421.043ZM116.598 421.043C116.598 422.475 116.754 423.68 117.066 424.656C117.379 425.633 117.867 426.368 118.531 426.863C119.195 427.358 120.061 427.605 121.129 427.605C122.184 427.605 123.036 427.358 123.688 426.863C124.352 426.368 124.833 425.633 125.133 424.656C125.445 423.68 125.602 422.475 125.602 421.043C125.602 419.598 125.445 418.4 125.133 417.449C124.833 416.486 124.352 415.763 123.688 415.281C123.023 414.799 122.158 414.559 121.09 414.559C119.514 414.559 118.368 415.099 117.652 416.18C116.949 417.26 116.598 418.882 116.598 421.043ZM148.766 409.754C151.227 409.754 153.212 410.711 154.723 412.625C156.246 414.539 157.008 417.345 157.008 421.043C157.008 423.517 156.65 425.6 155.934 427.293C155.217 428.973 154.228 430.242 152.965 431.102C151.702 431.961 150.25 432.391 148.609 432.391C147.555 432.391 146.65 432.26 145.895 432C145.139 431.727 144.495 431.382 143.961 430.965C143.427 430.535 142.965 430.079 142.574 429.598H142.262C142.366 430.118 142.444 430.652 142.496 431.199C142.548 431.746 142.574 432.28 142.574 432.801V441.609H136.617V410.164H141.461L142.301 412.996H142.574C142.965 412.41 143.44 411.87 144 411.375C144.56 410.88 145.23 410.49 146.012 410.203C146.806 409.904 147.724 409.754 148.766 409.754ZM146.852 414.52C145.81 414.52 144.983 414.734 144.371 415.164C143.759 415.594 143.31 416.238 143.023 417.098C142.75 417.957 142.6 419.044 142.574 420.359V421.004C142.574 422.41 142.704 423.602 142.965 424.578C143.238 425.555 143.688 426.297 144.312 426.805C144.951 427.312 145.823 427.566 146.93 427.566C147.841 427.566 148.59 427.312 149.176 426.805C149.762 426.297 150.198 425.555 150.484 424.578C150.784 423.589 150.934 422.384 150.934 420.965C150.934 418.829 150.602 417.221 149.938 416.141C149.273 415.06 148.245 414.52 146.852 414.52ZM174.078 409.754C176.539 409.754 178.525 410.711 180.035 412.625C181.559 414.539 182.32 417.345 182.32 421.043C182.32 423.517 181.962 425.6 181.246 427.293C180.53 428.973 179.54 430.242 178.277 431.102C177.014 431.961 175.562 432.391 173.922 432.391C172.867 432.391 171.962 432.26 171.207 432C170.452 431.727 169.807 431.382 169.273 430.965C168.74 430.535 168.277 430.079 167.887 429.598H167.574C167.678 430.118 167.757 430.652 167.809 431.199C167.861 431.746 167.887 432.28 167.887 432.801V441.609H161.93V410.164H166.773L167.613 412.996H167.887C168.277 412.41 168.753 411.87 169.312 411.375C169.872 410.88 170.543 410.49 171.324 410.203C172.118 409.904 173.036 409.754 174.078 409.754ZM172.164 414.52C171.122 414.52 170.296 414.734 169.684 415.164C169.072 415.594 168.622 416.238 168.336 417.098C168.062 417.957 167.913 419.044 167.887 420.359V421.004C167.887 422.41 168.017 423.602 168.277 424.578C168.551 425.555 169 426.297 169.625 426.805C170.263 427.312 171.135 427.566 172.242 427.566C173.154 427.566 173.902 427.312 174.488 426.805C175.074 426.297 175.51 425.555 175.797 424.578C176.096 423.589 176.246 422.384 176.246 420.965C176.246 418.829 175.914 417.221 175.25 416.141C174.586 415.06 173.557 414.52 172.164 414.52Z" fill="#3D76AA"/>
<path d="M440.551 785H434.594V756.445H450.961V761.406H440.551V768.77H450.238V773.711H440.551V785ZM475.922 774.043C475.922 776.465 475.492 778.522 474.633 780.215C473.773 781.908 472.543 783.197 470.941 784.082C469.353 784.954 467.465 785.391 465.277 785.391C464.444 785.391 463.643 785.312 462.875 785.156C462.12 785.013 461.397 784.798 460.707 784.512L459.398 786.484L456.391 784.434L457.719 782.48C456.768 781.504 456.033 780.312 455.512 778.906C455.004 777.5 454.75 775.879 454.75 774.043C454.75 770.423 455.701 767.637 457.602 765.684C459.503 763.73 462.1 762.754 465.395 762.754C466.28 762.754 467.126 762.845 467.934 763.027C468.754 763.197 469.522 763.444 470.238 763.77L471.312 762.168L474.281 764.277L473.148 765.918C474.034 766.868 474.717 768.027 475.199 769.395C475.681 770.749 475.922 772.298 475.922 774.043ZM460.824 774.043C460.824 774.681 460.857 775.273 460.922 775.82C460.987 776.354 461.078 776.842 461.195 777.285L467.387 768.008C467.113 767.865 466.801 767.754 466.449 767.676C466.098 767.598 465.72 767.559 465.316 767.559C463.741 767.559 462.595 768.099 461.879 769.18C461.176 770.26 460.824 771.882 460.824 774.043ZM469.828 774.043C469.828 773.522 469.809 773.034 469.77 772.578C469.73 772.109 469.672 771.68 469.594 771.289L463.559 780.312C463.819 780.417 464.099 780.495 464.398 780.547C464.698 780.586 465.017 780.605 465.355 780.605C466.41 780.605 467.263 780.358 467.914 779.863C468.578 779.368 469.06 778.633 469.359 777.656C469.672 776.68 469.828 775.475 469.828 774.043ZM486.801 785H480.844V754.609H486.801V785ZM502.074 762.754C504.092 762.754 505.831 763.145 507.289 763.926C508.747 764.694 509.874 765.814 510.668 767.285C511.462 768.757 511.859 770.553 511.859 772.676V775.566H497.777C497.842 777.246 498.344 778.568 499.281 779.531C500.232 780.482 501.547 780.957 503.227 780.957C504.62 780.957 505.896 780.814 507.055 780.527C508.214 780.241 509.405 779.811 510.629 779.238V783.848C509.548 784.382 508.415 784.772 507.23 785.02C506.059 785.267 504.633 785.391 502.953 785.391C500.766 785.391 498.826 784.987 497.133 784.18C495.453 783.372 494.132 782.142 493.168 780.488C492.217 778.835 491.742 776.751 491.742 774.238C491.742 771.686 492.172 769.564 493.031 767.871C493.904 766.165 495.115 764.889 496.664 764.043C498.214 763.184 500.017 762.754 502.074 762.754ZM502.113 766.992C500.954 766.992 499.991 767.363 499.223 768.105C498.467 768.848 498.031 770.013 497.914 771.602H506.273C506.26 770.716 506.098 769.928 505.785 769.238C505.486 768.548 505.03 768.001 504.418 767.598C503.819 767.194 503.051 766.992 502.113 766.992ZM522.66 785H516.703V754.609H522.66V785ZM544.164 778.516C544.164 780 543.812 781.257 543.109 782.285C542.419 783.301 541.384 784.076 540.004 784.609C538.624 785.13 536.905 785.391 534.848 785.391C533.324 785.391 532.016 785.293 530.922 785.098C529.841 784.902 528.747 784.577 527.641 784.121V779.199C528.826 779.733 530.095 780.176 531.449 780.527C532.816 780.866 534.014 781.035 535.043 781.035C536.202 781.035 537.029 780.866 537.523 780.527C538.031 780.176 538.285 779.72 538.285 779.16C538.285 778.796 538.181 778.47 537.973 778.184C537.777 777.884 537.348 777.552 536.684 777.188C536.02 776.81 534.978 776.322 533.559 775.723C532.191 775.15 531.065 774.57 530.18 773.984C529.307 773.398 528.656 772.708 528.227 771.914C527.81 771.107 527.602 770.085 527.602 768.848C527.602 766.829 528.383 765.312 529.945 764.297C531.521 763.268 533.624 762.754 536.254 762.754C537.608 762.754 538.897 762.891 540.121 763.164C541.358 763.438 542.628 763.874 543.93 764.473L542.133 768.77C541.052 768.301 540.03 767.917 539.066 767.617C538.116 767.318 537.146 767.168 536.156 767.168C535.284 767.168 534.626 767.285 534.184 767.52C533.741 767.754 533.52 768.112 533.52 768.594C533.52 768.945 533.63 769.258 533.852 769.531C534.086 769.805 534.529 770.111 535.18 770.449C535.844 770.775 536.814 771.198 538.09 771.719C539.327 772.227 540.401 772.76 541.312 773.32C542.224 773.867 542.927 774.551 543.422 775.371C543.917 776.178 544.164 777.227 544.164 778.516ZM557.816 762.754C559.835 762.754 561.573 763.145 563.031 763.926C564.49 764.694 565.616 765.814 566.41 767.285C567.204 768.757 567.602 770.553 567.602 772.676V775.566H553.52C553.585 777.246 554.086 778.568 555.023 779.531C555.974 780.482 557.289 780.957 558.969 780.957C560.362 780.957 561.638 780.814 562.797 780.527C563.956 780.241 565.147 779.811 566.371 779.238V783.848C565.29 784.382 564.158 784.772 562.973 785.02C561.801 785.267 560.375 785.391 558.695 785.391C556.508 785.391 554.568 784.987 552.875 784.18C551.195 783.372 549.874 782.142 548.91 780.488C547.96 778.835 547.484 776.751 547.484 774.238C547.484 771.686 547.914 769.564 548.773 767.871C549.646 766.165 550.857 764.889 552.406 764.043C553.956 763.184 555.759 762.754 557.816 762.754ZM557.855 766.992C556.697 766.992 555.733 767.363 554.965 768.105C554.21 768.848 553.773 770.013 553.656 771.602H562.016C562.003 770.716 561.84 769.928 561.527 769.238C561.228 768.548 560.772 768.001 560.16 767.598C559.561 767.194 558.793 766.992 557.855 766.992Z" fill="#3D76AA"/>
<path d="M499.293 731.707C499.683 732.098 500.317 732.098 500.707 731.707L507.071 725.343C507.462 724.953 507.462 724.319 507.071 723.929C506.681 723.538 506.047 723.538 505.657 723.929L500 729.586L494.343 723.929C493.953 723.538 493.319 723.538 492.929 723.929C492.538 724.319 492.538 724.953 492.929 725.343L499.293 731.707ZM500.707 127.293C500.317 126.902 499.683 126.902 499.293 127.293L492.929 133.657C492.538 134.047 492.538 134.681 492.929 135.071C493.319 135.462 493.953 135.462 494.343 135.071L500 129.414L505.657 135.071C506.047 135.462 506.681 135.462 507.071 135.071C507.462 134.681 507.462 134.047 507.071 133.657L500.707 127.293ZM501 731L501 128H499L499 731H501Z" fill="#4285C0"/>
<path d="M219.293 420.293C218.902 420.683 218.902 421.317 219.293 421.707L225.657 428.071C226.047 428.462 226.681 428.462 227.071 428.071C227.462 427.681 227.462 427.047 227.071 426.657L221.414 421L227.071 415.343C227.462 414.953 227.462 414.319 227.071 413.929C226.681 413.538 226.047 413.538 225.657 413.929L219.293 420.293ZM797.707 421.707C798.098 421.317 798.098 420.683 797.707 420.293L791.343 413.929C790.953 413.538 790.319 413.538 789.929 413.929C789.538 414.319 789.538 414.953 789.929 415.343L795.586 421L789.929 426.657C789.538 427.047 789.538 427.681 789.929 428.071C790.319 428.462 790.953 428.462 791.343 428.071L797.707 421.707ZM220 422L797 422V420L220 420V422Z" fill="#4285C0"/>
<path d="M590 742.029C590.016 742.581 590.477 743.016 591.029 743L600.025 742.74C600.577 742.724 601.012 742.263 600.996 741.711C600.98 741.159 600.519 740.724 599.967 740.74L591.971 740.972L591.74 732.975C591.724 732.423 591.263 731.988 590.711 732.004C590.159 732.02 589.724 732.481 589.74 733.033L590 742.029ZM844 474.971C843.984 474.419 843.523 473.984 842.971 474L833.975 474.26C833.423 474.276 832.988 474.737 833.004 475.289C833.02 475.841 833.481 476.276 834.033 476.26L842.029 476.028L842.26 484.025C842.276 484.577 842.737 485.012 843.289 484.996C843.841 484.98 844.276 484.519 844.26 483.967L844 474.971ZM591.727 742.686L843.727 475.686L842.273 474.314L590.273 741.314L591.727 742.686Z" fill="#4285C0"/>
<path d="M141.017 474C140.465 473.991 140.01 474.43 140 474.983L139.843 483.981C139.833 484.533 140.273 484.989 140.825 484.998C141.378 485.008 141.833 484.568 141.843 484.016L141.982 476.017L149.981 476.157C150.533 476.167 150.989 475.727 150.998 475.175C151.008 474.622 150.568 474.167 150.016 474.157L141.017 474ZM396.021 740.099C396.573 740.109 397.028 739.669 397.038 739.117L397.195 730.118C397.205 729.566 396.765 729.111 396.213 729.101C395.66 729.091 395.205 729.531 395.195 730.084L395.056 738.082L387.057 737.943C386.505 737.933 386.049 738.373 386.04 738.925C386.03 739.477 386.47 739.933 387.022 739.942L396.021 740.099ZM140.281 475.695L395.319 739.794L396.757 738.405L141.719 474.305L140.281 475.695Z" fill="#4285C0"/>
<path d="M591.017 102C590.465 101.991 590.01 102.43 590 102.983L589.843 111.981C589.833 112.533 590.273 112.989 590.825 112.998C591.378 113.008 591.833 112.568 591.843 112.016L591.982 104.017L599.981 104.157C600.533 104.167 600.989 103.727 600.998 103.175C601.008 102.622 600.568 102.167 600.016 102.157L591.017 102ZM846.021 368.099C846.573 368.109 847.028 367.669 847.038 367.117L847.195 358.118C847.205 357.566 846.765 357.111 846.213 357.101C845.66 357.091 845.205 357.531 845.195 358.084L845.056 366.082L837.057 365.943C836.505 365.933 836.049 366.373 836.04 366.925C836.03 367.477 836.47 367.933 837.022 367.942L846.021 368.099ZM590.281 103.695L845.319 367.794L846.757 366.405L591.719 102.305L590.281 103.695Z" fill="#4285C0"/>
<path d="M143 367.029C143.016 367.581 143.477 368.016 144.029 368L153.025 367.74C153.577 367.724 154.012 367.263 153.996 366.711C153.98 366.159 153.519 365.724 152.967 365.74L144.971 365.972L144.74 357.975C144.724 357.423 144.263 356.988 143.711 357.004C143.159 357.02 142.724 357.481 142.74 358.033L143 367.029ZM397 99.9711C396.984 99.4191 396.523 98.9845 395.971 99.0004L386.975 99.2604C386.423 99.2764 385.988 99.7368 386.004 100.289C386.02 100.841 386.481 101.276 387.033 101.26L395.029 101.028L395.26 109.025C395.276 109.577 395.737 110.012 396.289 109.996C396.841 109.98 397.276 109.519 397.26 108.967L397 99.9711ZM144.727 367.686L396.727 100.686L395.273 99.3136L143.273 366.314L144.727 367.686Z" fill="#4285C0"/>
</svg>
