<svg width="1866" height="1853" viewBox="0 0 1866 1853" fill="none" xmlns="http://www.w3.org/2000/svg">
<path d="M227.661 1518.29C246.253 1539.6 265.867 1560.04 286.437 1579.54C355.772 1646.22 438.455 1702.28 527.154 1744.67C559.836 1759.62 589.981 1775.11 625.301 1788.45C634.126 1791.76 643.141 1795.31 652.618 1798.5C662.175 1801.46 672.083 1804.42 682.442 1807.35C692.741 1810.5 703.722 1812.73 715.204 1815.06C726.696 1817.31 738.63 1819.89 751.446 1821.17C687.868 1808.07 625.898 1788.4 566.586 1762.47C506.903 1736.16 450.194 1703.84 397.379 1666.03C291.601 1590.31 201.127 1493.09 135.041 1381.96C132.313 1378.64 128.171 1372.31 123.207 1364.24L115.225 1351.03L107.172 1335.83C101.817 1325.29 95.6497 1314.59 90.9264 1304.22C86.6911 1295.15 82.2576 1286.18 77.629 1277.29C98.1668 1327.28 121.874 1371 148.418 1412.58C160.645 1431.65 173.587 1450.27 187.218 1468.41C185.292 1465.87 183.286 1463.4 181.371 1460.85C195.978 1480.51 211.366 1499.61 227.501 1518.09L227.661 1518.29ZM13.8394 1039.12L8.99579 1001.15C11.563 1024.33 14.5414 1050.22 19.9867 1076.15L16.7075 1057.74C15.4971 1051.57 14.5403 1045.36 13.8394 1039.12ZM860.994 1818.48C927.702 1825.08 997.659 1823.11 1066.18 1812.52C1134.75 1801.96 1201.8 1783.25 1264.15 1759.12C1149.33 1803.25 1027.46 1822.88 908.247 1819.59C892.292 1819.35 876.568 1819.59 860.994 1818.48Z" fill="url(#paint0_linear_1_2)"/>
<path d="M466.022 1685.14L463.425 1683.52C464.298 1684.06 465.15 1684.61 466.022 1685.14ZM562.805 1737.24C617.772 1762.23 675.345 1781.34 734.518 1794.23C637.365 1772.58 545.937 1734.37 466.022 1685.14C496.709 1704.22 528.97 1721.87 562.805 1737.24ZM1775.47 1049.43C1776.45 1033.95 1778.44 1017.7 1778.94 1009.97C1784.9 960.277 1786.66 917.847 1786.41 875.279C1785.31 867.606 1782.15 853.231 1780.89 836.885C1779.36 820.501 1777.1 804.46 1775.2 788.634C1772.3 772.945 1769.8 757.414 1766.63 742.186C1789.45 856.023 1789.07 970.302 1768.08 1078.12C1770.39 1068.52 1772.85 1058.96 1775.47 1049.43Z" fill="url(#paint1_linear_1_2)"/>
<path d="M9.34776 818.052C17.8517 750.437 35.9527 684.527 53.1711 640.617L46.2015 672.759C50.5036 663.341 57.4532 641.46 66.9299 618.304L73.7691 600.646L81.3204 583.527C86.3345 572.444 90.5464 561.939 94.9889 553.884C91.9503 561.439 89.0221 569.582 85.4921 577.755C82.0324 585.957 78.1515 594.286 74.451 602.665L89.6338 569.259C74.3146 606.759 61.1274 645.057 50.1326 683.979C38.7706 726.625 29.7853 771.447 24.9517 811.682C23.5477 821.717 23.0563 831.516 22.1438 840.865C21.4719 850.213 20.3086 859.13 20.2184 867.558C19.7972 884.402 19.2155 899.15 19.5064 910.949C20.5593 934.555 22.0134 946.324 24.1093 939.749C28.2309 926.686 28.1507 859.513 42.5312 775.445C50.2228 733.543 61.2639 687.585 76.2461 642.557C91.118 597.491 110.613 553.796 130.8 515.246L124.863 527.906L119.398 540.949L108.206 567.319L97.9372 594.561L92.7124 608.299C91.1781 612.964 89.6238 617.648 88.0894 622.351C74.8522 659.657 64.9543 698.942 56.33 738.541L50.7242 768.448C48.6685 778.385 47.796 788.497 46.2717 798.502C43.0827 818.503 41.9195 838.65 40.1445 858.562C38.1488 898.484 37.7477 937.916 41.4481 975.624C41.2977 966.667 41.1473 958.71 41.2776 951.008L42.4309 927.931C42.9122 920.003 42.822 911.595 43.5841 901.963C44.2861 892.33 44.9279 881.473 45.4895 868.626C49.4105 803.872 61.2539 739.766 79.6657 677.727C97.2151 615.423 117.913 560.557 148.75 510.846L156.783 495.892C162.218 485.858 166.741 475.96 172.487 465.867C179.035 454.794 185.303 446.504 190.377 438.91C195.602 431.394 200.035 424.789 205.109 418.38L242.033 368.58C242.785 368.492 241.812 370.393 240.027 373.215C246.115 364.738 252.673 356.592 259.672 348.815C267.244 340.241 274.594 331.147 280.822 323.641C282.286 323.573 283.71 323.533 287.07 321.182C373.814 231.058 480.564 157.613 600.863 111.311L627.608 101.13L654.685 92.3203L668.152 87.9303L681.791 84.2066L708.967 76.8277C724.511 73.1726 740.255 69.4685 756.311 66.1368L780.749 61.9623C788.963 60.5806 797.216 59.0225 805.66 58.2582C822.447 56.2885 837.088 52.1337 844.98 51.1145C888.794 48.6745 932.527 49.1645 983.861 53.2312C987.842 53.2998 994.04 53.6525 1001.23 54.0347C1008.42 54.4365 1016.64 54.6325 1024.62 55.3478C1033.96 57.4057 1043.94 59.4439 1054.41 61.4331C1118.28 71.1148 1180.03 88.4202 1238.79 111.439L1238.72 111.164L1261.22 119.925L1284.19 130.292C1299.94 136.995 1315.37 145.569 1331.32 153.644C1339.32 157.632 1346.9 162.502 1354.77 166.912C1362.49 171.557 1370.57 175.673 1378.03 180.749C1393.15 190.567 1408.49 199.965 1422.62 210.46C1445.4 226.524 1467.48 243.518 1488.8 261.396C1489.26 261.808 1489.75 262.19 1490.21 262.592L1490.63 262.964L1505.24 275.919L1519.22 289.55L1533.21 303.19C1537.84 307.766 1542.13 312.666 1546.62 317.389C1544.45 313.959 1544.53 312.578 1544.61 311.216C1537.7 304.748 1529.53 297.095 1521.45 289.559C1534.92 301.534 1546.68 312.362 1556.32 321.201C1560.04 325.846 1564.1 330.412 1567.96 335.4L1579.85 350.746L1592.49 366.709L1605.08 383.877C1627.4 411.687 1647.11 441.438 1665.82 471.776C1674.49 487.337 1684.04 502.458 1691.75 518.558L1703.92 542.429L1714.87 566.897C1718.02 572.12 1716.79 567.113 1717.19 566.231C1729.47 595.256 1739.35 625.438 1748.29 655.855C1765.39 710.824 1776.84 767.321 1782.47 824.51C1784.73 838.013 1785.69 851.673 1787.68 865.206L1786.45 893.859C1786.44 904.667 1787.02 915.476 1786.55 926.304L1785.27 958.896C1785.11 966.246 1784.02 974.271 1783.39 982.993C1782.55 991.694 1782.11 1001.08 1780.82 1010.98L1776.69 1042.26C1775.37 1053.22 1772.81 1064.49 1770.85 1076.27C1761.06 1127.99 1746.59 1178.76 1727.61 1227.98C1725.18 1236.08 1723.32 1242.55 1721.67 1246.16C1715.38 1260.87 1708.67 1275.11 1702.19 1289.13C1694.94 1302.79 1688.29 1316.45 1680.86 1329.39C1657.88 1371.97 1631.21 1412.55 1601.15 1450.69C1597.78 1454.99 1594.64 1459.36 1591.25 1463.4L1581.24 1475.22C1574.62 1482.85 1568.71 1490.49 1562.43 1497.11C1549.88 1510.36 1539.36 1522.65 1529.48 1531.89C1518.17 1543.43 1519.18 1543.97 1527.01 1538.4C1532.51 1534.44 1537.88 1530.31 1543.14 1526.04L1564.42 1507.28C1572.2 1500.65 1579.65 1493.16 1586.83 1486.11C1593.93 1479 1601.03 1472.52 1606.5 1466.66C1617.55 1454.99 1624.8 1447.79 1623.25 1450.99C1605.43 1483.77 1572.98 1524.2 1525.55 1568.93C1501.35 1590.75 1474.12 1614.47 1441.92 1637.33C1426.22 1649.29 1408.76 1660.24 1390.96 1672.19C1372.57 1683.2 1353.77 1695.25 1333.22 1705.95C1288.26 1729.88 1366.97 1691.5 1369.1 1691.13C1361.5 1696.98 1353.54 1702.34 1345.26 1707.21C1330.44 1714.91 1315.75 1722.85 1300.39 1729.48C1291.42 1733.51 1282.6 1737.86 1273.53 1741.62L1246.16 1752.61L1260.64 1747.05C1290.24 1735.55 1317.91 1722.01 1342.89 1708.62C1333.51 1714.16 1323.24 1720.58 1311.98 1726.37C1299.92 1732.47 1287.44 1739.13 1274.91 1745.08L1238.56 1761.6C1368.6 1715.44 1488.11 1639.04 1582.72 1539.45C1630.08 1489.81 1672.32 1435.28 1706.76 1376.29C1741.41 1317.41 1769.28 1254.97 1789.87 1190.11C1758.24 1287.42 1708.93 1376.8 1649.67 1452.39C1757.41 1310.23 1821.65 1135.94 1830.16 956.192C1830.15 966.099 1829.15 975.967 1828.48 985.834C1827.65 995.702 1827.25 1005.61 1826.06 1015.45C1823.48 1035.1 1821.64 1054.85 1817.77 1074.33C1811.51 1113.53 1801.36 1152.05 1789.87 1190.11C1812.55 1121.31 1826.1 1048.77 1831.44 975.81C1836.99 902.796 1832.36 829.341 1820.84 758.159C1840.63 852.447 1843.91 959.279 1827.05 1064.86C1838.9 996.761 1841.91 926.569 1837.35 856.974C1836.33 830.389 1833.12 803.99 1830.48 779.551C1826.7 755.288 1823.85 732.887 1820.19 714.768C1834.68 781.658 1840.39 838.709 1843.18 892.487C1840.5 775.121 1815.62 656.208 1766.77 544.506C1793.43 605.173 1815.32 670.436 1828.69 737.532C1842.13 804.558 1847.71 873.133 1844.53 939.102C1844.38 931.38 1844.71 923.668 1844.25 915.917L1843.18 892.487C1846.06 998.809 1829.3 1104.19 1796.09 1203.29C1779.42 1252.83 1758.83 1300.98 1733.91 1346.79C1709.04 1392.53 1680.33 1436.18 1648.07 1477.28C1684.9 1435.24 1723.79 1375.81 1754.83 1310.54C1785.73 1245.13 1808.66 1174.39 1824.44 1112.61C1801.23 1223.55 1755.17 1333.03 1688.34 1430.8C1621.7 1528.64 1534.4 1614.67 1433.4 1680.7C1332.51 1746.93 1218.05 1792.77 1100.59 1815.42C1042.27 1826.74 982.982 1832.67 923.521 1833.15C865.144 1833.45 806.862 1828.48 749.421 1818.3L779.556 1823.89C789.604 1825.76 799.793 1826.79 809.902 1828.26C830.118 1831.43 850.566 1832.63 870.943 1834.46C911.788 1836.7 952.854 1837.46 993.789 1834.41C1034.79 1832.28 1075.54 1826.31 1116.09 1819C1136.21 1814.54 1156.57 1810.88 1176.43 1805.15C1186.4 1802.42 1196.49 1800.04 1206.39 1797.02L1236.02 1787.63C1221.06 1792.15 1205.31 1798.15 1188.5 1802.55L1167.43 1808.61C1211.64 1797.09 1254.92 1782.36 1296.89 1764.55C1316.09 1756.36 1334.99 1747.52 1353.56 1738.04C1318.77 1756.08 1282.89 1772.02 1246.12 1785.79C1176 1811.36 1103.12 1829.05 1028.91 1838.52C1017.78 1840.25 1007.63 1840.79 998.533 1841.72L974.184 1844.07C959.854 1845.18 949.274 1845.68 941.873 1846.47C927.061 1847.91 924.955 1849.26 930.852 1850.36C936.739 1851.47 950.618 1852.35 967.686 1852.82C984.704 1852.72 1004.89 1851.83 1023.25 1850.2C1207.74 1831.7 1377.13 1760.95 1512.87 1655.03C1648.7 1549.09 1752.74 1408.37 1810.72 1248.69C1814.36 1239.42 1817.16 1229.86 1820.19 1220.37C1823.12 1210.85 1826.37 1201.44 1829.03 1191.83C1833.95 1172.53 1839.78 1153.45 1843.55 1133.85L1849.76 1104.6L1854.64 1075.09L1857.06 1060.32L1858.78 1045.45L1862.21 1015.72C1869.21 936.211 1866.45 855.848 1854.07 776.983C1847.45 732.358 1835.82 679.373 1820.83 632.18L1809.3 598.039C1805.28 587.192 1801.02 576.961 1797.23 567.338L1791.65 553.472L1785.92 541.018L1776.08 520.204C1744.65 457.891 1705.16 398.458 1658.93 343.181C1612.75 287.884 1559.69 236.683 1499.87 192.096L1477.37 175.408L1454.03 159.651L1442.34 151.753L1430.28 144.344L1406.04 129.567C1373 110.909 1339.15 92.9279 1303.47 78.0135C1268.16 62.3543 1231.21 49.6447 1193.59 38.2775C1174.59 33.1819 1155.67 27.4984 1136.19 23.5885C1126.48 21.5405 1116.86 19.0514 1107.04 17.3366L1077.51 12.2312C1006.92 0.0899193 933.479 -2.80086 860.113 2.58872C786.786 8.12529 713.149 21.7266 642.54 45.2056L616.116 54.1523C607.281 57.0627 598.767 60.8354 590.073 64.1377C581.468 67.6557 572.674 70.7326 564.23 74.6131L538.838 86.1076C530.294 89.7921 522.041 94.0254 513.808 98.3077L489.048 111.017L464.96 124.854C456.938 129.479 448.855 133.996 441.173 139.141L417.868 154.114C410.026 158.985 402.765 164.678 395.194 169.911C387.763 175.339 380.051 180.396 372.871 186.119L351.24 203.14C343.93 208.676 337.03 214.683 330.151 220.7L309.463 238.633L289.697 257.438C283.118 263.699 276.47 269.892 270.343 276.556C219.89 328.472 175.566 385.112 139.314 445.044C103.764 503.837 74.6328 566.117 52.399 630.857C8.52544 757.463 -4.05999 885.863 1.7965 1001.84C0.53294 954.095 0.322348 885.627 9.34776 818.052ZM1424.65 1704.35C1455.13 1685.11 1484.47 1664.2 1512.55 1641.75C1484.07 1664.67 1454.81 1685.83 1424.65 1704.35ZM1827.96 1172.43C1824.96 1181.26 1822.42 1189.98 1819.11 1198.31L1809.52 1223.03L1804.84 1235.26L1799.7 1247.33C1796.26 1255.46 1792.93 1263.63 1789.7 1271.83C1771.13 1317.03 1749.05 1360.76 1723.64 1402.65C1698.36 1444.55 1669.06 1483.8 1637.75 1520.64C1622.29 1539.25 1605.44 1556.5 1588.87 1573.76L1562.99 1598.48C1554.5 1606.79 1545.2 1614.2 1536.4 1622.04C1529.02 1628.31 1521.57 1634.45 1514.08 1640.48C1541.91 1618.15 1568.35 1594.22 1593.27 1568.83C1557.21 1605.35 1517.99 1638.75 1476.05 1668.66C1465.66 1675.74 1455.62 1683.32 1444.83 1689.99L1412.27 1710.26L1377.87 1729.36C1366.17 1735.71 1353.81 1741.36 1341.43 1747.54C1350.3 1742.43 1359.27 1737.5 1368.35 1732.76C1378.59 1727.21 1389.33 1720.64 1399.82 1714.63C1410.39 1708.74 1420 1702.28 1427.98 1696.87C1435.96 1691.46 1442.22 1686.97 1445.48 1684.07C1440.83 1687.16 1436.09 1690.12 1431.38 1693.12C1436.45 1689.86 1441.49 1686.54 1446.49 1683.18C1446.28 1683.4 1445.84 1683.76 1445.48 1684.07C1555.11 1610.91 1648.5 1514.77 1718.48 1405.16C1788.77 1295.66 1834.51 1172.13 1853.46 1046.5C1849.35 1096.89 1839.9 1137.12 1827.96 1172.43ZM1676.51 407.601C1706.69 452.141 1732.78 499.204 1754.46 548.24C1756.97 553.619 1759.33 559.078 1761.67 564.546C1811.44 683.646 1834.08 811.408 1830.77 937.269C1831.61 895.623 1828.78 853.996 1824.06 812.721C1818.71 765.156 1808.83 718.158 1795.74 672.19C1770.04 580.009 1728.32 492.639 1675.35 412.991C1680.21 419.556 1685.34 426.67 1690.64 434.216C1696.32 442.025 1701.64 450.078 1706.59 458.351L1700.19 447.484L1693.28 436.911L1679.46 415.783C1670.05 401.829 1659.85 388.385 1650.04 374.705C1639.39 361.633 1629.29 348.129 1618.21 335.4C1609.82 326.062 1601.79 316.409 1593.29 307.188C1623.29 338.105 1651.46 371.275 1676.51 407.601ZM972.048 11.2806C986.759 12.045 1001.5 13.4463 1016.24 14.5242C1028.32 15.5139 1040.33 17.2582 1052.22 18.5713C1055.79 18.7183 1059.56 18.9535 1064.3 19.4728C1069.02 20.1098 1074.67 21.2955 1082.04 22.9417C1136.88 31.8786 1186.92 45.3134 1222.44 59.1891C1290.61 84.4026 1354.04 115.77 1411.58 151.998C1469.13 188.157 1520.77 229.284 1564.47 274.204C1584.6 295.557 1578.73 290.902 1567.62 280.534L1584.29 297.82C1576.91 290.628 1569.66 283.337 1562.17 276.301L1539.09 255.821C1544.71 260.622 1558.33 272.117 1567.62 280.534C1493.53 206.658 1406.91 145.315 1313.16 100.189C1219.33 55.0832 1118.3 27.224 1017.31 16.1019C1033.53 17.8657 1041.49 18.2577 1049.07 18.4537C1038.19 17.2092 1027.28 15.5041 1016.24 14.5242C1001.41 13.5737 986.609 12.2802 971.888 11.5746L928.164 10.5653C942.645 10.5555 957.317 10.9475 972.048 11.2806Z" fill="url(#paint2_linear_1_2)"/>
<path d="M1163.14 1809.81L1167.42 1808.59C1162.94 1809.76 1158.54 1811.06 1154.04 1812.17C1157.09 1811.43 1160.15 1810.7 1163.14 1809.81ZM1609.22 1432.16C1651.69 1377.41 1689.22 1311.99 1713.17 1255.64L1712.88 1255.7C1652.1 1396.04 1553.51 1516.94 1430.49 1605.96C1452.33 1591.12 1473.79 1575.76 1494.85 1559.87C1521.9 1532.24 1567.18 1487.3 1609.22 1432.16ZM354.95 1595.76C426.872 1658.59 513.606 1713.27 610.148 1750.11C647.794 1763.95 686.212 1776.08 725.503 1784.63C744.998 1789.55 764.904 1792.59 784.659 1796.2C794.557 1797.92 804.586 1798.87 814.534 1800.24C824.502 1801.5 834.45 1802.93 844.488 1803.5C799.17 1798.59 754.184 1791.24 710.39 1779.59C666.627 1767.98 623.726 1753.62 582.34 1735.99C541.168 1718.08 501.314 1697.41 463.064 1674.12C425.097 1650.53 389.096 1624.18 354.95 1595.76ZM1242.72 1707.77L1220.47 1716.31L1197.74 1723.72C1182.7 1729.01 1167.19 1732.97 1151.71 1737.17C1167.27 1733.35 1182.91 1729.78 1198.08 1724.88L1220.98 1718.04L1243.34 1710.06C1242.48 1709.63 1237.38 1710.6 1242.72 1707.77ZM980.04 1763.51C968.407 1764.48 956.714 1764.39 945.001 1764.51C933.288 1764.65 921.555 1764.89 909.812 1764.14L925.616 1765.59C930.45 1765.89 934.802 1766.26 938.603 1766.7C952.452 1765.54 966.201 1765.22 980.04 1763.51ZM516.314 1658.11C529.762 1665.82 544.042 1672.61 558.212 1680.1C561.762 1682 568.2 1684.17 576.273 1687.05C559.014 1679.81 542.478 1670.83 525.67 1662.5C517.347 1658.18 509.334 1653.34 501.171 1648.83C493.028 1644.28 484.916 1639.75 477.214 1634.67L486.61 1640.81L496.408 1646.53L516.314 1658.11Z" fill="url(#paint3_linear_1_2)"/>
<path d="M677.293 1532.17C892.352 1532.17 1197.96 1372.59 1316 1261.98C1333.79 1246.18 1354.81 1258.82 1338.64 1276.2C1181.79 1446.85 893.969 1573.25 696.697 1573.25C528.531 1573.25 421.81 1475.29 421.81 1345.72C421.81 1257.24 446.065 1064.47 698.314 750.043C942.478 445.092 1178.56 298.147 1341.87 298.147C1403.32 298.147 1438.89 331.328 1438.89 386.63C1438.89 441.932 1375.83 470.373 1393.62 437.192C1411.4 404.011 1417.87 336.068 1345.11 336.068C1265.87 336.068 1007.16 446.672 724.186 787.965C530.148 1020.23 454.15 1201.94 454.15 1345.72C454.15 1462.65 577.041 1532.17 677.293 1532.17Z" fill="url(#paint4_linear_1_2)"/>
<defs>
<linearGradient id="paint0_linear_1_2" x1="8.99579" y1="1001.15" x2="1264.15" y2="1001.15" gradientUnits="userSpaceOnUse">
<stop stop-color="#DC8F38"/>
<stop offset="0.5" stop-color="#F5EC9B"/>
<stop offset="1" stop-color="#DC8F38"/>
</linearGradient>
<linearGradient id="paint1_linear_1_2" x1="463.425" y1="742.186" x2="1786.43" y2="742.186" gradientUnits="userSpaceOnUse">
<stop stop-color="#DC8F38"/>
<stop offset="0.5" stop-color="#F5EC9B"/>
<stop offset="1" stop-color="#DC8F38"/>
</linearGradient>
<linearGradient id="paint2_linear_1_2" x1="0.449219" y1="-0.00976562" x2="1865.98" y2="-0.00976562" gradientUnits="userSpaceOnUse">
<stop stop-color="#DC8F38"/>
<stop offset="0.5" stop-color="#F5EC9B"/>
<stop offset="1" stop-color="#DC8F38"/>
</linearGradient>
<linearGradient id="paint3_linear_1_2" x1="354.95" y1="1255.64" x2="1713.17" y2="1255.64" gradientUnits="userSpaceOnUse">
<stop stop-color="#DC8F38"/>
<stop offset="0.5" stop-color="#F5EC9B"/>
<stop offset="1" stop-color="#DC8F38"/>
</linearGradient>
<linearGradient id="paint4_linear_1_2" x1="421.81" y1="298.147" x2="1438.89" y2="298.147" gradientUnits="userSpaceOnUse">
<stop stop-color="#DC8F38"/>
<stop offset="0.5" stop-color="#F5EC9B"/>
<stop offset="1" stop-color="#DC8F38"/>
</linearGradient>
</defs>
</svg>
