<svg width="3001" height="322" viewBox="0 0 3001 322" fill="none" xmlns="http://www.w3.org/2000/svg">
<path d="M157.228 321.712C68.4587 321.712 0.714233 260.835 0.714233 160.778C0.714233 61.1604 68.4541 0.285645 157.228 0.285645C220.54 0.285645 273.007 31.7199 297.137 85.513L256.404 101.673C238.252 63.3762 201.283 41.9036 157.23 41.9036C94.3607 41.9036 44.5526 85.292 44.5526 160.777C44.5526 236.707 94.3607 280.092 157.23 280.092C201.283 280.092 238.252 258.619 256.404 220.322L297.137 236.703C273.008 290.275 220.543 321.712 157.228 321.712ZM571.031 321.712C482.262 321.712 414.517 260.614 414.517 160.778C414.517 61.1604 482.257 0.285645 571.031 0.285645C659.358 0.285645 727.318 61.1627 727.318 160.778C727.318 260.616 659.357 321.712 571.031 321.712ZM571.031 280.315C633.678 280.315 683.265 236.927 683.265 160.773C683.265 85.2853 633.678 41.9003 571.031 41.9003C508.161 41.9003 458.353 85.2887 458.353 160.773C458.353 236.925 508.161 280.315 571.031 280.315ZM1085.12 4.48961H1128.95V317.506H1081.35L917.757 69.1285V317.506H874.146V4.48961H921.299L1085.11 251.756L1085.12 4.48961ZM1508.44 4.48961H1552.27V317.506H1504.68L1341.08 69.1285V317.506H1297.47V4.48961H1344.62L1508.43 251.756L1508.44 4.48961ZM1891.03 44.1139H1765.73V141.518H1876.19V180.922H1765.73V277.662H1891.03V317.508H1720.79V4.49187H1891.03V44.1139ZM2173.78 321.712C2085.01 321.712 2017.26 260.835 2017.26 160.778C2017.26 61.1604 2085 0.285645 2173.78 0.285645C2237.09 0.285645 2289.56 31.7199 2313.69 85.513L2272.95 101.673C2254.8 63.3762 2217.83 41.9036 2173.78 41.9036C2110.91 41.9036 2061.1 85.292 2061.1 160.777C2061.1 236.707 2110.91 280.092 2173.78 280.092C2217.83 280.092 2254.8 258.619 2272.95 220.322L2313.69 236.703C2289.56 290.275 2237.09 321.712 2173.78 321.712ZM2619.45 4.48961V44.115H2540.2V317.507H2496.59V44.115H2417.12V4.48961H2619.45ZM2954.89 317.506L2928.77 244.454H2788.86L2762.74 317.506H2716.91L2832.25 4.48961H2885.38L3000.71 317.506H2954.89ZM2802.59 205.934H2915.05L2858.82 48.0945L2802.59 205.934Z" fill="url(#paint0_linear_58_33)"/>
<defs>
<linearGradient id="paint0_linear_58_33" x1="0.714233" y1="0.285645" x2="3000.71" y2="0.285645" gradientUnits="userSpaceOnUse">
<stop stop-color="#DC8F38"/>
<stop offset="0.52" stop-color="#F5EC9B"/>
<stop offset="1" stop-color="#DC8F38"/>
</linearGradient>
</defs>
</svg>
